<svg width="128" height="128" viewBox="0 0 128 128" fill="none" xmlns="http://www.w3.org/2000/svg">
<rect width="128" height="128" fill="url(#paint0_linear_107_11)"/>
<g filter="url(#filter0_d_107_11)">
<path d="M42.9165 56.3332C42.0617 56.3332 41.2413 56.4636 40.4248 56.5824C40.6893 55.6931 40.9615 54.7884 41.3985 53.9757C41.8355 52.7951 42.5178 51.7716 43.1963 50.7404C43.7637 49.6249 44.7642 48.8697 45.5002 47.9152C46.2707 46.9876 47.321 46.3704 48.1528 45.5999C48.9693 44.7949 50.0388 44.3924 50.8898 43.8251C51.7792 43.3152 52.5535 42.7517 53.3815 42.4834L55.4477 41.6324L57.2647 40.8772L55.4055 33.4482L53.117 34.0002C52.3848 34.1842 51.4917 34.3989 50.4758 34.6557C49.437 34.8474 48.3292 35.3726 47.0948 35.8517C45.8758 36.3961 44.4652 36.7641 43.1542 37.6381C41.8355 38.4737 40.3137 39.1714 38.972 40.2907C37.6725 41.4446 36.1047 42.4451 34.947 43.9132C33.682 45.2856 32.4323 46.7269 31.4625 48.3676C30.3393 49.9316 29.5765 51.6489 28.7715 53.3471C28.0432 55.0452 27.4567 56.7817 26.9775 58.4684C26.069 61.8494 25.6627 65.0617 25.5055 67.8102C25.3752 70.5626 25.4518 72.8511 25.6128 74.5071C25.6703 75.2891 25.7777 76.0481 25.8543 76.5732L25.9502 77.2172L26.0498 77.1942C26.7316 80.3791 28.3012 83.3058 30.5769 85.6359C32.8525 87.966 35.7414 89.6042 38.9093 90.3611C42.0771 91.1179 45.3945 90.9624 48.4777 89.9126C51.5609 88.8628 54.2839 86.9616 56.3317 84.4288C58.3794 81.8961 59.6683 78.8354 60.0493 75.6007C60.4302 72.3661 59.8876 69.0896 58.4842 66.1505C57.0808 63.2113 54.874 60.7296 52.119 58.9922C49.364 57.2549 46.1735 56.333 42.9165 56.3332ZM85.0832 56.3332C84.2283 56.3332 83.408 56.4636 82.5915 56.5824C82.856 55.6931 83.1282 54.7884 83.5652 53.9757C84.0022 52.7951 84.6845 51.7716 85.363 50.7404C85.9303 49.6249 86.9308 48.8697 87.6668 47.9152C88.4373 46.9876 89.4877 46.3704 90.3195 45.5999C91.136 44.7949 92.2055 44.3924 93.0565 43.8251C93.9458 43.3152 94.7202 42.7517 95.5482 42.4834L97.6143 41.6324L99.4313 40.8772L97.5722 33.4482L95.2837 34.0002C94.5515 34.1842 93.6583 34.3989 92.6425 34.6557C91.6037 34.8474 90.4958 35.3726 89.2615 35.8517C88.0463 36.3999 86.6318 36.7641 85.3208 37.6419C84.0022 38.4776 82.4803 39.1752 81.1387 40.2946C79.8392 41.4484 78.2713 42.4489 77.1137 43.9132C75.8487 45.2856 74.599 46.7269 73.6292 48.3676C72.506 49.9316 71.7432 51.6489 70.9382 53.3471C70.2098 55.0452 69.6233 56.7817 69.1442 58.4684C68.2357 61.8494 67.8293 65.0617 67.6722 67.8102C67.5418 70.5626 67.6185 72.8511 67.7795 74.5071C67.837 75.2891 67.9443 76.0481 68.021 76.5732L68.1168 77.2172L68.2165 77.1942C68.8983 80.3791 70.4678 83.3058 72.7435 85.6359C75.0192 87.966 77.9081 89.6042 81.0759 90.3611C84.2438 91.1179 87.5612 90.9624 90.6444 89.9126C93.7276 88.8628 96.4505 86.9616 98.4983 84.4288C100.546 81.8961 101.835 78.8354 102.216 75.6007C102.597 72.3661 102.054 69.0896 100.651 66.1505C99.2474 63.2113 97.0406 60.7296 94.2857 58.9922C91.5307 57.2549 88.3402 56.333 85.0832 56.3332Z" fill="white"/>
</g>
<defs>
<filter id="filter0_d_107_11" x="23.4395" y="32.4482" width="80.8945" height="61.3848" filterUnits="userSpaceOnUse" color-interpolation-filters="sRGB">
<feFlood flood-opacity="0" result="BackgroundImageFix"/>
<feColorMatrix in="SourceAlpha" type="matrix" values="0 0 0 0 0 0 0 0 0 0 0 0 0 0 0 0 0 0 127 0" result="hardAlpha"/>
<feOffset dy="1"/>
<feGaussianBlur stdDeviation="1"/>
<feComposite in2="hardAlpha" operator="out"/>
<feColorMatrix type="matrix" values="0 0 0 0 0.133333 0 0 0 0 0.133333 0 0 0 0 0.133333 0 0 0 0.1 0"/>
<feBlend mode="normal" in2="BackgroundImageFix" result="effect1_dropShadow_107_11"/>
<feBlend mode="normal" in="SourceGraphic" in2="effect1_dropShadow_107_11" result="shape"/>
</filter>
<linearGradient id="paint0_linear_107_11" x1="64" y1="0" x2="64" y2="128" gradientUnits="userSpaceOnUse">
<stop stop-color="#0099FF"/>
<stop offset="1" stop-color="#0082D9"/>
</linearGradient>
</defs>
</svg>
